<svg height="30" viewBox="0 0 30 30" width="30" xmlns="http://www.w3.org/2000/svg"><path clip-rule="evenodd" d="M29.084 18.496a.992.992 0 0 1-.081-.627c.339-1.676.351-3.355.072-5.044C27.85 5.384 20.839.167 13.388 1.175a1.84 1.84 0 0 1-1.189-.219c-3.149-1.682-7-1.104-9.561 1.41a8.152 8.152 0 0 0-1.541 9.499c.17.332.223.631.146 1-.155.756-.17 1.529-.205 2.335.027.45.035.937.086 1.42.843 8.064 8.229 13.722 16.273 12.464.246-.038.452.003.672.113 1.521.767 3.152.953 4.797.69 5.379-.856 8.375-6.383 6.218-11.391zm-7.011 3.759c-.902 1.028-2.04 1.687-3.331 2.058-2.423.697-4.871.721-7.283-.005-2.195-.662-3.814-2.021-4.459-4.301-.457-1.617.586-2.825 2.197-2.636.695.082 1.153.503 1.479 1.083.204.363.376.747.559 1.123.599 1.227 1.562 1.92 2.931 2.07 1.121.123 2.204.043 3.241-.427a3.002 3.002 0 0 0 1.046-.767c.775-.896.636-2.163-.316-2.868-.92-.681-2.023-.863-3.098-1.103-1.536-.343-3.078-.668-4.523-1.312-1.494-.666-2.707-1.633-3.098-3.322-.455-1.958.091-3.616 1.659-4.887 1.384-1.121 3.05-1.483 4.773-1.634.399-.035.803-.005 1.204-.005 1.592-.043 3.143.167 4.58.9 1.1.562 2.011 1.327 2.541 2.476.259.563.383 1.163.216 1.762-.202.728-.697 1.234-1.449 1.387-.782.159-1.511.035-2.003-.692a19.119 19.119 0 0 1-.673-1.059c-.672-1.145-1.631-1.782-2.991-1.778-.621.003-1.24-.018-1.848.13-.547.132-1.047.359-1.462.744-.739.687-.711 1.629.078 2.257.52.413 1.134.644 1.771.806 1.49.38 2.988.733 4.477 1.122.811.212 1.585.53 2.336.907 3.49 1.749 3.241 5.928 1.446 7.971z" fill-rule="evenodd"/></svg>