<svg width="53.763" height="53.763" xmlns="http://www.w3.org/2000/svg"><title>background</title><path fill="none" d="M-1-1h582v402H-1z"/><title>Layer 1</title><circle stroke="null" r="26" cy="26.942" cx="26.849"/><path fill="#FFF" d="M41.123 14.845a4.384 4.384 0 0 0-.776-1.822c-1.363-1.87-3.802-2.55-5.989-2.8a21.532 21.532 0 0 0-7.499.47c-.674.165-1.338.366-1.989.604-1.542.565-2.979 1.384-4.34 2.298-1.268.853-2.525 1.752-3.663 2.775-1.44 1.296-2.595 2.946-3.279 4.764-.364 1.03-.642 2.247-.408 3.573.215 1.23.734 2.325 1.367 3.221.63.903 1.341 1.647 2.042 2.304 1.341 1.256 2.66 2.272 3.687 3.324-.39.16-.784.328-1.187.518-.345.175-.692.334-1.045.532a11.6 11.6 0 0 0-.98.697c-.624.497-1.23 1.043-1.78 1.712-.542.668-1.076 1.441-1.318 2.49-.072.253-.083.54-.105.817.004.26.006.51.052.784.078.536.278 1.15.71 1.672.411.517 1.081.9 1.573 1.01.527.203 1.076.238 1.622.264 1.088-.015 2.086-.343 2.995-.795.918-.47 1.714-1.045 2.44-1.898.388-.414.656-.915.924-1.42a8.07 8.07 0 0 0 .522-1.52 6.423 6.423 0 0 0-.1-3.406c-.12-.4-.289-.77-.474-1.125.193-.065.396-.144.58-.199 1.612-.486 3.694-.587 5.228.217.435.228.786.548 1.166.852.284.23.451.548.643.848.428.668.396 1.582.123 2.3-.135.354-.266.724-.568.968-.119.098-.813.417-.724.656.077.205.347.398 1.134-.074 1.668-1 1.878-3.244.96-4.819-.717-1.228-1.92-2.048-3.272-2.436a9.73 9.73 0 0 0-2.3-.363c-.686-.024-1.38.001-2.05.142-.197.041-1.76.588-1.809.525-.093-.122-.186-.246-.28-.362-1.36-1.587-2.902-2.748-4.203-3.994-1.146-1.07-2.47-2.483-2.567-4.139-.117-2.01 1.615-3.937 2.944-5.248.431-.425.892-.82 1.371-1.19 2.151-1.662 4.792-2.976 7.361-3.839a21.255 21.255 0 0 1 2.232-.619 15.262 15.262 0 0 1 3.238-.344c1.52.001 3.042.257 4.304 1.163a2.77 2.77 0 0 1 1.173 2.378c-.072 2.775-2.73 4.982-5.06 6.011-2.619 1.158-6.114 2.164-8.209 1.208-1.029-.469-2.01-1.328-2.292-.866-.209.342 2.04 1.855 2.265 1.976 2.046 1.102 5.288.795 7.77.045 2.74-.828 5.224-2.62 6.726-5.077.857-1.406 1.408-3.15 1.114-4.763zM22.051 37.007c0 .563-.122 1.163-.316 1.745-.224.49-.428.914-.825 1.318-.763.832-1.75 1.364-2.6 1.45-.11.031-.207.003-.309.001-.098-.014-.206.008-.296-.025-.17-.063-.403-.104-.479-.16a.694.694 0 0 1-.214-.223 1.611 1.611 0 0 1-.14-.479c-.018-.097-.02-.22-.027-.322.01-.092-.003-.178.013-.275.025-.19.07-.396.147-.609a5.54 5.54 0 0 1 .678-1.265c.571-.8 1.284-1.575 2-2.077a22.352 22.352 0 0 1 1.826-1.09c.364.667.56 1.332.542 2.011z"/></svg>