<svg viewBox="0 0 128 128" xmlns="http://www.w3.org/2000/svg"><linearGradient gradientTransform="matrix(1 0 0 -1 0 128)" gradientUnits="userSpaceOnUse" id="a" x1="14" x2="114" y1="64" y2="64"><stop offset="0" stop-color="#6cb7e9"/><stop offset="1" stop-color="#78c3eb"/></linearGradient><circle cx="64" cy="64" r="50" fill="url(#a)"/><path d="M95.8 54.6c-1-2.6-5.7-3.6-17-3.6-27.9 0-34-1.3-41.1-8.7-.4-.4-.9-.4-1.3-.1-.4.3-.5.9-.2 1.3l.9 1.5c2.8 4.8 7 12 31.7 12h4.4c10.9 0 13.1 1.4 13.5 2.2.5 1.2-2.1 3.9-4.4 6.3-2.1 2.1-4.4 4.6-5.9 7.1-.2.4-.1 1 .2 1.3.2.1.4.2.6.2s.5-.1.7-.3c2.5-2.3 5-4.4 7.2-6.2 7.4-6.2 11.8-10 10.7-13zM51.4 77.8c-2.8 0-5.1 2.3-5.1 5.1s2.3 5.1 5.1 5.1 5.1-2.3 5.1-5.1-2.3-5.1-5.1-5.1zm18.8 0c-2.8 0-5.1 2.3-5.1 5.1s2.3 5.1 5.1 5.1 5.1-2.3 5.1-5.1c.1-2.8-2.2-5.1-5.1-5.1z" fill="#fff"/></svg>