<svg id="Layer_1" viewBox="0 0 128 128" xmlns="http://www.w3.org/2000/svg"><style>.st0{fill:#001d26}.st1{fill:#31c5f0}</style><path class="st0" d="M64 111.2C38 111.2 16.8 90 16.8 64S38 16.8 64 16.8 111.2 38 111.2 64 90 111.2 64 111.2z"/><path class="st1" d="M64 19.7c24.4 0 44.3 19.9 44.3 44.3S88.4 108.3 64 108.3 19.7 88.4 19.7 64 39.6 19.7 64 19.7m0-5.7c-27.6 0-50 22.4-50 50s22.4 50 50 50 50-22.4 50-50-22.4-50-50-50z"/><path class="st1" d="M80.5 59.3c-2.8 0-3.8 1.4-3.8 2.6 0 1.3.6 2.2 4.4 4.1 5.6 2.7 7.4 5.3 7.4 9.1 0 5.7-4.4 8.8-10.3 8.8-3.1 0-5.8-.6-7.3-1.5-.2-.1-.3-.3-.3-.6v-5.2c0-.4.2-.5.4-.3 2.2 1.5 4.8 2.1 7.2 2.1 2.8 0 4-1.2 4-2.8 0-1.3-.8-2.4-4.4-4.3-5.1-2.4-7.2-4.9-7.2-9 0-4.6 3.6-8.4 9.9-8.4 3.1 0 5.2.5 6.4 1 .3.2.4.5.4.7v4.9c0 .3-.2.5-.5.4-1.6-1-3.9-1.6-6.3-1.6zm-30.7 4.3c.8.1 1.5.1 2.9.1 4.2 0 8.1-1.5 8.1-7.1 0-4.5-2.8-6.8-7.6-6.8-1.4 0-2.8.1-3.4.1v13.7zm-6.3-19c0-.2.5-.4.8-.4 2.3-.1 5.7-.2 9.2-.2 9.9 0 13.7 5.4 13.7 12.4 0 9.1-6.6 13-14.6 13-1.4 0-1.8-.1-2.8-.1V83c0 .3-.1.4-.4.4h-5.5c-.3 0-.4-.1-.4-.4V44.6z"/></svg>