<svg height="24" viewBox="0 0 24 24" width="24" xmlns="http://www.w3.org/2000/svg"><circle cx="12" cy="12" fill="#21759B" r="11"/><path d="M12.002 18.653c-3.686 0-6.68-2.938-6.652-6.651.028-3.714 2.827-6.652 6.652-6.652s6.651 2.993 6.651 6.652-2.965 6.651-6.651 6.651zm1.968-1.025l-1.885-5.072-1.774 5.183c1.303.305 2.19.388 3.659-.111zm-4.6-.277L6.541 9.618c-.388.832-.471 1.525-.527 2.384.028 2.272 1.303 4.35 3.354 5.349zM17.96 12c.028-1.468-.637-2.632-.692-2.798.055 1.136-.111 1.718-.305 2.356l-1.94 5.57c2.439-1.469 2.91-3.659 2.965-5.127h-.027zm-6.152-.249l-.942-2.577-.693-.056c-.277-.194-.111-.498.083-.498 1.247.083 1.94.083 3.187 0 .305 0 .388.443.028.498l-.666.056 2.162 6.374 1.025-3.492c.056-1.524-.36-1.69-.914-2.799-.444-.86.027-1.69.887-1.718-.693-.666-2.107-1.497-3.964-1.525s-3.824.915-4.988 2.689l2.05-.056c.25.111.14.472 0 .5l-.72.055 2.162 6.485 1.303-3.936z" fill="#FFF"/><path d="M4.222 19.778A10.966 10.966 0 0 0 12 23c6.075 0 11-4.925 11-11 0-3.038-1.231-5.788-3.222-7.778L4.222 19.778z" fill="#231F20" opacity=".1"/></svg>